# xmcd CD database file
#
# Track frame offsets:
#	150
#	22127
#	46925
#	70532
#	108951
#	134663
#	157903
#	180145
#	206048
#	251489
#	270035
#	281903
#	305109
#	322869
#	341449
#
# Disc length: 4767 seconds
#
# Revision: 0
# Processed by: cddbd v1.5.2PL0 Copyright (c) Steve Scherf et al.
# Submitted via: CDex 2.16
#
DISCID=cc129d0f
DTITLE=Various Artist - EMOTIONAL JAZZ SAXOPHONE2 [CD2)
DYEAR=2018
DGENRE=Jazz
TTITLE0=My Shinnig Hour-John Coltrane
TTITLE1=South Of The Border-Lou Donaldson
TTITLE2=Flying Home-Arnett Cobb
TTITLE3=Bean And The Boys-Jackie Mclean
TTITLE4=McSplivens-Dexter Gordon
TTITLE5=Poor Butterfly-Cannonball Adderley
TTITLE6=Journey Into Melody-Stanley Turrentine
TTITLE7=Capricious-Gerry Mulligan
TTITLE8=Moritat-Sonny Rollins
TTITLE9=Rockin'in In Rhythm-Steve Lacy
TTITLE10=A Felicidad-Leo Wright
TTITLE11=All Of Me-Lester Young
TTITLE12=Heigh-Ho-The Dave Brubeck Quartet(Paul Desmond)
TTITLE13=Blues For Alice-Roland Kirk
TTITLE14=Diane-Art Pepper
EXTD=YEAR: 2018
EXTT0=
EXTT1=
EXTT2=
EXTT3=
EXTT4=
EXTT5=
EXTT6=
EXTT7=
EXTT8=
EXTT9=
EXTT10=
EXTT11=
EXTT12=
EXTT13=
EXTT14=
PLAYORDER=
